# xmcd
#
# Track frame offsets: 
#        150
#        20759
#        44747
#        69889
#        94211
#        118910
#        140694
#        169998
#        196664
#
# Disc length: 2999 seconds
#
# Revision: 1
# Processed by: cddbd v1.5.2PL0 Copyright (c) Steve Scherf et al.
# Submitted via: ExactAudioCopy v0.99pb5
#
DISCID=840bb509
DTITLE=Bob Mintzer - In The Moment
DYEAR=2004
DGENRE=Jazz
TTITLE0=Straight Ahead
TTITLE1=Listen Here
TTITLE2=Time After Time
TTITLE3=Aha
TTITLE4=Simple Song
TTITLE5=What's The Word
TTITLE6=Play Pretty
TTITLE7=Blues
TTITLE8=Forgiveness
EXTD=YEAR: 2004
EXTT0=
EXTT1=
EXTT2=
EXTT3=
EXTT4=
EXTT5=
EXTT6=
EXTT7=
EXTT8=
PLAYORDER=
